<?xml version="1.0" encoding="UTF-8"?><svg xmlns="http://www.w3.org/2000/svg" xmlns:xlink="http://www.w3.org/1999/xlink" contentScriptType="text/ecmascript" width="375" zoomAndPan="magnify" contentStyleType="text/css" viewBox="0 0 375 374.999991" height="374.999991" preserveAspectRatio="xMidYMid meet" version="1.0"><defs><clipPath id="clip-0"><path d="M 87 8.972656 L 297 8.972656 L 297 318 L 87 318 Z M 87 8.972656 " clip-rule="nonzero"/></clipPath><clipPath id="clip-1"><path d="M 81 290 L 302.519531 290 L 302.519531 333 L 81 333 Z M 81 290 " clip-rule="nonzero"/></clipPath><clipPath id="clip-2"><path d="M 130 340 L 254 340 L 254 365.972656 L 130 365.972656 Z M 130 340 " clip-rule="nonzero"/></clipPath></defs><path fill="rgb(47.059631%, 54.119873%, 80.778503%)" d="M 192.105469 314.667969 C 191.0625 314.667969 190.09375 314.109375 189.566406 313.199219 L 103.894531 164.949219 C 75.765625 116.277344 92.457031 53.765625 141.09375 25.601562 C 156.59375 16.628906 174.210938 11.882812 192.015625 11.882812 C 228.335938 11.882812 262.171875 31.40625 280.332031 62.832031 C 298.476562 94.238281 298.476562 133.363281 280.332031 164.949219 L 194.660156 313.199219 C 194.132812 314.109375 193.164062 314.667969 192.105469 314.667969 " fill-opacity="1" fill-rule="nonzero"/><g clip-path="url(#clip-0)"><path fill="rgb(24.308777%, 27.059937%, 40.779114%)" d="M 192.015625 8.945312 L 192.015625 14.820312 L 192.015625 8.945312 C 173.695312 8.949219 155.566406 13.828125 139.625 23.058594 C 89.582031 52.03125 72.40625 116.335938 101.355469 166.417969 L 187.027344 314.667969 C 188.082031 316.492188 190.019531 317.609375 192.105469 317.609375 C 194.203125 317.609375 196.140625 316.492188 197.199219 314.667969 L 282.871094 166.417969 C 301.542969 133.921875 301.542969 93.667969 282.871094 61.359375 C 264.183594 29.023438 229.378906 8.945312 192.015625 8.945312 M 192.015625 14.820312 C 226.207031 14.820312 259.441406 32.566406 277.792969 64.300781 C 296.125 96.03125 294.820312 133.832031 277.792969 163.480469 L 192.105469 311.730469 L 106.433594 163.480469 C 79.070312 116.128906 95.246094 55.527344 142.5625 28.144531 C 158.164062 19.121094 175.207031 14.828125 192.015625 14.820312 " fill-opacity="1" fill-rule="nonzero"/></g><path fill="rgb(27.839661%, 37.249756%, 70.979309%)" d="M 192.105469 311.730469 L 131.390625 206.644531 C 142.0625 210.125 153.410156 212.035156 165.125 212.035156 C 225.824219 212.035156 276.46875 161.351562 276.46875 100.601562 C 276.46875 78.460938 269.71875 57.671875 258.238281 40.175781 C 265.664062 46.859375 272.214844 54.765625 277.527344 63.859375 C 277.542969 63.859375 277.542969 63.875 277.554688 63.886719 C 277.554688 63.917969 277.570312 63.933594 277.585938 63.960938 C 277.601562 63.976562 277.601562 63.992188 277.613281 63.992188 C 277.628906 64.019531 277.644531 64.035156 277.644531 64.050781 C 277.660156 64.0625 277.660156 64.078125 277.675781 64.09375 C 277.6875 64.121094 277.6875 64.136719 277.703125 64.152344 C 277.71875 64.183594 277.71875 64.183594 277.734375 64.195312 C 277.746094 64.226562 277.761719 64.269531 277.792969 64.300781 C 286.789062 79.886719 291.0625 96.945312 291.0625 113.765625 C 291.046875 131.203125 286.453125 148.390625 277.792969 163.480469 L 192.105469 311.730469 " fill-opacity="1" fill-rule="nonzero"/><path fill="rgb(14.118958%, 18.03894%, 34.899902%)" d="M 192.105469 311.730469 L 131.390625 206.644531 L 192.105469 311.730469 L 277.792969 163.480469 C 286.453125 148.390625 291.046875 131.203125 291.0625 113.765625 C 291.046875 131.203125 286.453125 148.390625 277.792969 163.480469 L 192.105469 311.730469 M 277.734375 64.195312 C 277.71875 64.183594 277.71875 64.183594 277.703125 64.152344 C 277.71875 64.167969 277.71875 64.183594 277.734375 64.195312 M 277.675781 64.09375 C 277.660156 64.078125 277.660156 64.0625 277.644531 64.050781 C 277.660156 64.078125 277.660156 64.078125 277.675781 64.09375 M 277.617188 63.992188 C 277.601562 63.992188 277.601562 63.976562 277.585938 63.960938 C 277.601562 63.976562 277.601562 63.992188 277.617188 63.992188 M 277.554688 63.886719 C 277.542969 63.875 277.542969 63.859375 277.527344 63.859375 C 277.542969 63.859375 277.542969 63.875 277.554688 63.886719 " fill-opacity="1" fill-rule="nonzero"/><path fill="rgb(27.839661%, 37.249756%, 70.979309%)" d="M 192.089844 179.199219 C 156.578125 179.199219 127.808594 150.390625 127.808594 114.867188 C 127.808594 79.328125 156.578125 50.535156 192.089844 50.535156 C 227.585938 50.535156 256.375 79.328125 256.375 114.867188 C 256.375 150.390625 227.585938 179.199219 192.089844 179.199219 M 192.089844 60.566406 C 162.171875 60.566406 137.832031 84.925781 137.832031 114.867188 C 137.832031 144.792969 162.171875 169.152344 192.089844 169.152344 C 222.007812 169.152344 246.347656 144.792969 246.347656 114.867188 C 246.347656 84.925781 222.007812 60.566406 192.089844 60.566406 " fill-opacity="1" fill-rule="nonzero"/><path fill="rgb(58.039856%, 83.918762%, 42.349243%)" d="M 192.089844 166.214844 C 163.789062 166.214844 140.769531 143.175781 140.769531 114.867188 C 140.769531 86.542969 163.789062 63.507812 192.089844 63.507812 C 220.394531 63.507812 243.410156 86.542969 243.410156 114.867188 C 243.410156 143.175781 220.394531 166.214844 192.089844 166.214844 " fill-opacity="1" fill-rule="nonzero"/><path fill="rgb(24.308777%, 27.059937%, 40.779114%)" d="M 192.089844 60.566406 C 162.171875 60.566406 137.832031 84.925781 137.832031 114.867188 C 137.832031 144.792969 162.171875 169.152344 192.089844 169.152344 C 222.007812 169.152344 246.347656 144.792969 246.347656 114.867188 C 246.347656 84.925781 222.007812 60.566406 192.089844 60.566406 M 192.089844 66.445312 C 218.808594 66.445312 240.476562 88.128906 240.476562 114.867188 C 240.476562 141.605469 218.808594 163.273438 192.089844 163.273438 C 165.375 163.273438 143.707031 141.605469 143.707031 114.867188 C 143.707031 88.128906 165.375 66.445312 192.089844 66.445312 " fill-opacity="1" fill-rule="nonzero"/><path fill="rgb(76.078796%, 90.19928%, 61.178589%)" d="M 186.011719 117.597656 C 182.726562 117.597656 179.390625 116.792969 176.296875 115.085938 C 166.488281 109.695312 162.921875 97.398438 168.308594 87.601562 C 171.992188 80.914062 178.90625 77.109375 186.042969 77.109375 C 189.34375 77.109375 192.679688 77.933594 195.773438 79.621094 C 205.550781 85 209.132812 97.3125 203.761719 107.109375 C 200.078125 113.808594 193.148438 117.597656 186.011719 117.597656 " fill-opacity="1" fill-rule="nonzero"/><path fill="rgb(76.078796%, 90.19928%, 61.178589%)" d="M 163.496094 127.132812 C 162.1875 127.132812 160.851562 126.8125 159.617188 126.136719 C 155.730469 124.003906 154.304688 119.097656 156.449219 115.203125 C 157.914062 112.53125 160.675781 111.019531 163.507812 111.019531 C 164.816406 111.019531 166.152344 111.339844 167.382812 112.015625 C 171.273438 114.175781 172.699219 119.070312 170.554688 122.960938 C 169.085938 125.621094 166.328125 127.132812 163.496094 127.132812 " fill-opacity="1" fill-rule="nonzero"/><g clip-path="url(#clip-1)"><path fill="rgb(24.308777%, 27.059937%, 40.779114%)" d="M 259.984375 296.347656 C 271.730469 298.1875 281.316406 300.507812 287.714844 303.019531 C 290.929688 304.28125 293.324219 305.605469 294.730469 306.765625 C 295.4375 307.339844 295.890625 307.867188 296.125 308.25 C 296.347656 308.644531 296.390625 308.867188 296.390625 309.058594 C 296.390625 309.21875 296.363281 309.394531 296.199219 309.71875 C 295.890625 310.320312 294.96875 311.320312 293.324219 312.347656 C 290.460938 314.167969 285.628906 316.078125 279.332031 317.785156 C 269.878906 320.339844 257.109375 322.484375 242.191406 323.984375 C 227.277344 325.496094 210.21875 326.347656 192.089844 326.347656 C 162.628906 326.347656 135.953125 324.085938 116.796875 320.472656 C 107.242188 318.664062 99.535156 316.503906 94.46875 314.242188 C 91.945312 313.113281 90.082031 311.953125 89.023438 310.96875 C 88.480469 310.46875 88.15625 310.042969 87.980469 309.71875 C 87.820312 309.394531 87.789062 309.21875 87.789062 309.058594 C 87.789062 308.867188 87.820312 308.644531 88.054688 308.25 C 88.449219 307.574219 89.566406 306.484375 91.445312 305.398438 C 94.234375 303.753906 98.59375 302.050781 104.160156 300.507812 C 109.707031 298.964844 116.488281 297.570312 124.195312 296.347656 C 125.796875 296.113281 126.882812 294.601562 126.648438 293 C 126.382812 291.398438 124.886719 290.296875 123.285156 290.546875 C 111.277344 292.425781 101.398438 294.777344 94.324219 297.554688 C 90.753906 298.949219 87.894531 300.449219 85.71875 302.210938 C 84.648438 303.105469 83.722656 304.078125 83.035156 305.207031 C 82.34375 306.339844 81.902344 307.660156 81.917969 309.058594 C 81.902344 310.277344 82.257812 311.464844 82.8125 312.507812 C 83.886719 314.464844 85.589844 315.949219 87.71875 317.3125 C 91.445312 319.664062 96.6875 321.648438 103.308594 323.453125 C 113.230469 326.128906 126.25 328.316406 141.386719 329.832031 C 156.535156 331.359375 173.769531 332.226562 192.089844 332.226562 C 221.859375 332.210938 248.796875 329.949219 268.453125 326.246094 C 278.304688 324.378906 286.320312 322.175781 292.105469 319.605469 C 294.996094 318.3125 297.34375 316.933594 299.136719 315.285156 C 300.03125 314.464844 300.792969 313.554688 301.367188 312.507812 C 301.925781 311.464844 302.261719 310.277344 302.261719 309.058594 C 302.277344 307.660156 301.835938 306.339844 301.148438 305.207031 C 299.929688 303.226562 298.0625 301.726562 295.714844 300.332031 C 292.191406 298.257812 287.449219 296.480469 281.59375 294.851562 C 275.734375 293.21875 268.777344 291.78125 260.894531 290.546875 C 259.292969 290.296875 257.796875 291.398438 257.53125 293 C 257.285156 294.601562 258.382812 296.113281 259.984375 296.347656 " fill-opacity="1" fill-rule="nonzero"/></g><g clip-path="url(#clip-2)"><path fill="rgb(24.308777%, 27.059937%, 40.779114%)" d="M 228.878906 346.433594 C 235.21875 347.417969 240.371094 348.679688 243.71875 349.988281 C 245.394531 350.632812 246.597656 351.324219 247.183594 351.808594 C 247.476562 352.058594 247.625 352.25 247.640625 352.292969 L 247.652344 352.292969 L 247.949219 352.132812 L 247.625 352.21875 L 247.652344 352.292969 L 247.949219 352.132812 L 247.625 352.21875 L 248.359375 352.03125 L 247.59375 352.03125 L 247.625 352.21875 L 248.359375 352.03125 L 247.59375 352.03125 L 248.34375 352.03125 L 247.625 351.839844 L 247.59375 352.03125 L 248.34375 352.03125 L 247.625 351.839844 L 247.945312 351.925781 L 247.652344 351.765625 L 247.625 351.839844 L 247.945312 351.925781 L 247.652344 351.765625 C 247.652344 351.765625 247.582031 351.882812 247.402344 352.042969 C 247.066406 352.367188 246.363281 352.867188 245.335938 353.367188 C 243.527344 354.246094 240.785156 355.171875 237.347656 355.996094 C 227.015625 358.480469 210.542969 360.125 192.089844 360.125 C 176.105469 360.125 161.628906 358.890625 151.308594 356.9375 C 146.15625 355.964844 142.03125 354.804688 139.433594 353.644531 C 138.140625 353.074219 137.230469 352.484375 136.820312 352.089844 C 136.617188 351.898438 136.527344 351.765625 136.527344 351.765625 L 136.25 351.925781 L 136.558594 351.839844 L 136.527344 351.765625 L 136.25 351.925781 L 136.558594 351.839844 L 135.824219 352.03125 L 136.585938 352.03125 L 136.558594 351.839844 L 135.824219 352.03125 L 136.585938 352.03125 L 135.851562 352.03125 L 136.558594 352.234375 L 136.585938 352.03125 L 135.851562 352.03125 L 136.558594 352.234375 L 136.160156 352.132812 L 136.527344 352.292969 L 136.558594 352.234375 L 136.160156 352.132812 L 136.527344 352.292969 C 136.542969 352.234375 136.96875 351.734375 137.863281 351.222656 C 139.214844 350.414062 141.503906 349.503906 144.46875 348.679688 C 147.449219 347.855469 151.105469 347.09375 155.289062 346.433594 C 156.886719 346.183594 157.988281 344.683594 157.738281 343.082031 C 157.488281 341.480469 155.992188 340.378906 154.394531 340.628906 C 147.773438 341.65625 142.339844 342.949219 138.316406 344.523438 C 136.308594 345.316406 134.632812 346.167969 133.28125 347.269531 C 132.59375 347.828125 131.992188 348.460938 131.523438 349.238281 C 131.035156 350.03125 130.714844 351 130.714844 352.027344 C 130.714844 352.941406 130.964844 353.820312 131.359375 354.542969 C 132.125 355.921875 133.222656 356.847656 134.488281 357.671875 C 136.734375 359.066406 139.667969 360.167969 143.351562 361.167969 C 148.875 362.664062 156.023438 363.855469 164.332031 364.691406 C 172.625 365.53125 182.0625 366 192.089844 366 C 208.386719 366 223.125 364.753906 233.957031 362.710938 C 239.390625 361.679688 243.820312 360.476562 247.140625 359.007812 C 248.796875 358.257812 250.191406 357.464844 251.339844 356.40625 C 251.910156 355.878906 252.425781 355.277344 252.820312 354.542969 C 253.203125 353.820312 253.46875 352.941406 253.46875 352.03125 C 253.46875 351 253.144531 350.03125 252.660156 349.238281 C 251.824219 347.871094 250.632812 346.960938 249.238281 346.125 C 247.15625 344.902344 244.484375 343.917969 241.222656 342.996094 C 237.964844 342.097656 234.117188 341.304688 229.789062 340.628906 C 228.1875 340.378906 226.691406 341.480469 226.441406 343.082031 C 226.191406 344.683594 227.277344 346.183594 228.894531 346.433594 " fill-opacity="1" fill-rule="nonzero"/></g></svg>